<svg width="214" height="53" viewBox="0 0 214 53" fill="none" xmlns="http://www.w3.org/2000/svg">
<path d="M2.048 39C1.52 39 1.088 38.832 0.752 38.496C0.416 38.16 0.248 37.728 0.248 37.2V3.36C0.248 2.88 0.416 2.472 0.752 2.136C1.088 1.752 1.52 1.56 2.048 1.56H10.328C10.856 1.56 11.288 1.752 11.624 2.136C11.96 2.472 12.128 2.88 12.128 3.36V6.24C13.424 4.752 14.96 3.6 16.736 2.784C18.56 1.968 20.6 1.56 22.856 1.56H26.024C26.504 1.56 26.912 1.728 27.248 2.064C27.632 2.4 27.824 2.832 27.824 3.36V10.776C27.824 11.256 27.632 11.688 27.248 12.072C26.912 12.408 26.504 12.576 26.024 12.576H19.04C17.072 12.576 15.536 13.128 14.432 14.232C13.376 15.288 12.848 16.8 12.848 18.768V37.2C12.848 37.728 12.656 38.16 12.272 38.496C11.936 38.832 11.504 39 10.976 39H2.048ZM34.7433 39C34.2153 39 33.7833 38.832 33.4473 38.496C33.1113 38.16 32.9433 37.728 32.9433 37.2V3.36C32.9433 2.832 33.1113 2.4 33.4473 2.064C33.7833 1.728 34.2153 1.56 34.7433 1.56H42.5913C43.1193 1.56 43.5513 1.728 43.8873 2.064C44.2233 2.4 44.3913 2.832 44.3913 3.36V5.808C45.3513 4.512 46.6953 3.384 48.4233 2.424C50.1513 1.416 52.1913 0.887997 54.5433 0.839998C60.0633 0.743999 63.8553 2.832 65.9193 7.104C67.0233 5.28 68.6073 3.792 70.6713 2.64C72.7353 1.44 74.9913 0.839998 77.4393 0.839998C79.9353 0.839998 82.1673 1.416 84.1353 2.568C86.1513 3.672 87.7593 5.4 88.9593 7.752C90.1593 10.056 90.7593 13.056 90.7593 16.752V37.2C90.7593 37.728 90.5673 38.16 90.1833 38.496C89.8473 38.832 89.4393 39 88.9593 39H80.6073C80.0793 39 79.6233 38.832 79.2393 38.496C78.9033 38.16 78.7353 37.728 78.7353 37.2V17.256C78.7353 15.576 78.4953 14.256 78.0153 13.296C77.5353 12.288 76.8873 11.568 76.0713 11.136C75.2553 10.704 74.3193 10.488 73.2633 10.488C72.3993 10.488 71.5353 10.704 70.6713 11.136C69.8553 11.568 69.1833 12.288 68.6553 13.296C68.1753 14.256 67.9353 15.576 67.9353 17.256V37.2C67.9353 37.728 67.7673 38.16 67.4313 38.496C67.0953 38.832 66.6633 39 66.1353 39H57.7833C57.2553 39 56.8233 38.832 56.4873 38.496C56.1513 38.16 55.9833 37.728 55.9833 37.2V17.256C55.9833 15.576 55.7193 14.256 55.1913 13.296C54.6633 12.288 53.9913 11.568 53.1753 11.136C52.3593 10.704 51.4473 10.488 50.4393 10.488C49.5753 10.488 48.7113 10.704 47.8473 11.136C47.0313 11.568 46.3593 12.288 45.8313 13.296C45.3513 14.256 45.1113 15.552 45.1113 17.184V37.2C45.1113 37.728 44.9193 38.16 44.5353 38.496C44.1993 38.832 43.7673 39 43.2393 39H34.7433Z" fill="#2A2A2A"/>
<path d="M100.626 52.68C100.098 52.68 99.6661 52.512 99.3301 52.176C98.9941 51.84 98.8261 51.408 98.8261 50.88V3.36C98.8261 2.832 98.9941 2.4 99.3301 2.064C99.6661 1.728 100.098 1.56 100.626 1.56H108.762C109.242 1.56 109.65 1.728 109.986 2.064C110.37 2.4 110.562 2.832 110.562 3.36V6.024C111.666 4.536 113.13 3.312 114.954 2.352C116.778 1.344 119.034 0.839998 121.722 0.839998C124.122 0.839998 126.234 1.224 128.058 1.992C129.882 2.712 131.442 3.792 132.738 5.232C134.034 6.672 135.042 8.424 135.762 10.488C136.53 12.552 136.962 14.928 137.058 17.616C137.106 18.576 137.13 19.464 137.13 20.28C137.13 21.096 137.106 21.984 137.058 22.944C136.962 25.536 136.554 27.864 135.834 29.928C135.114 31.992 134.106 33.744 132.81 35.184C131.514 36.624 129.93 37.752 128.058 38.568C126.234 39.336 124.122 39.72 121.722 39.72C119.37 39.72 117.306 39.312 115.53 38.496C113.802 37.632 112.362 36.432 111.21 34.896V50.88C111.21 51.408 111.042 51.84 110.706 52.176C110.37 52.512 109.938 52.68 109.41 52.68H100.626ZM117.834 30.072C119.466 30.072 120.738 29.736 121.65 29.064C122.562 28.392 123.21 27.48 123.594 26.328C124.026 25.176 124.29 23.904 124.386 22.512C124.482 21.024 124.482 19.536 124.386 18.048C124.29 16.656 124.026 15.384 123.594 14.232C123.21 13.08 122.562 12.168 121.65 11.496C120.738 10.824 119.466 10.488 117.834 10.488C116.25 10.488 114.978 10.848 114.018 11.568C113.058 12.24 112.362 13.128 111.93 14.232C111.498 15.336 111.258 16.536 111.21 17.832C111.162 18.744 111.138 19.632 111.138 20.496C111.138 21.36 111.162 22.272 111.21 23.232C111.258 24.432 111.522 25.56 112.002 26.616C112.482 27.624 113.202 28.464 114.162 29.136C115.122 29.76 116.346 30.072 117.834 30.072ZM146.048 39C145.52 39 145.088 38.832 144.752 38.496C144.416 38.16 144.248 37.728 144.248 37.2V3.36C144.248 2.88 144.416 2.472 144.752 2.136C145.088 1.752 145.52 1.56 146.048 1.56H154.328C154.856 1.56 155.288 1.752 155.624 2.136C155.96 2.472 156.128 2.88 156.128 3.36V6.24C157.424 4.752 158.96 3.6 160.736 2.784C162.56 1.968 164.6 1.56 166.856 1.56H170.024C170.504 1.56 170.912 1.728 171.248 2.064C171.632 2.4 171.824 2.832 171.824 3.36V10.776C171.824 11.256 171.632 11.688 171.248 12.072C170.912 12.408 170.504 12.576 170.024 12.576H163.04C161.072 12.576 159.536 13.128 158.432 14.232C157.376 15.288 156.848 16.8 156.848 18.768V37.2C156.848 37.728 156.656 38.16 156.272 38.496C155.936 38.832 155.504 39 154.976 39H146.048ZM194.374 39.72C190.342 39.72 186.934 39.072 184.15 37.776C181.414 36.48 179.302 34.632 177.814 32.232C176.374 29.784 175.558 26.88 175.366 23.52C175.318 22.56 175.294 21.48 175.294 20.28C175.294 19.032 175.318 17.952 175.366 17.04C175.558 13.632 176.422 10.728 177.958 8.328C179.494 5.928 181.63 4.08 184.366 2.784C187.15 1.488 190.486 0.839998 194.374 0.839998C198.31 0.839998 201.646 1.488 204.382 2.784C207.166 4.08 209.326 5.928 210.862 8.328C212.398 10.728 213.262 13.632 213.454 17.04C213.502 17.952 213.526 19.032 213.526 20.28C213.526 21.48 213.502 22.56 213.454 23.52C213.262 26.88 212.422 29.784 210.934 32.232C209.494 34.632 207.382 36.48 204.598 37.776C201.862 39.072 198.454 39.72 194.374 39.72ZM194.374 30.936C196.534 30.936 198.094 30.288 199.054 28.992C200.062 27.696 200.638 25.752 200.782 23.16C200.83 22.44 200.854 21.48 200.854 20.28C200.854 19.08 200.83 18.12 200.782 17.4C200.638 14.856 200.062 12.936 199.054 11.64C198.094 10.296 196.534 9.624 194.374 9.624C192.262 9.624 190.702 10.296 189.694 11.64C188.686 12.936 188.134 14.856 188.038 17.4C187.99 18.12 187.966 19.08 187.966 20.28C187.966 21.48 187.99 22.44 188.038 23.16C188.134 25.752 188.686 27.696 189.694 28.992C190.702 30.288 192.262 30.936 194.374 30.936Z" fill="#FDC500"/>
</svg>
