<svg width="149" height="45" viewBox="0 0 149 45" fill="none" xmlns="http://www.w3.org/2000/svg">
    <path fill-rule="evenodd" clip-rule="evenodd" d="M30.3135 42.4713C27.5797 43.5505 24.6161 44.144 21.5422 44.144C18.4703 44.144 15.5698 43.5505 12.9512 42.4713C10.2334 41.3531 7.8194 39.7149 5.83842 37.6852C3.8552 35.6525 2.30252 33.2216 1.29718 30.5225C0.328033 27.9242 -0.131706 25.0764 0.0327717 22.0909C0.193007 19.1076 0.95899 16.2576 2.20992 13.6615C3.50803 10.9602 5.32452 8.53133 7.52638 6.49884C9.73049 4.4666 12.3202 2.82843 15.1595 1.71018C17.8932 0.633546 20.8591 0.0400391 23.931 0.0400391C27.0074 0.0400391 29.9034 0.633546 32.5221 1.71018C35.2423 2.82843 37.6538 4.4666 39.6368 6.49884C39.8712 6.73939 40.1013 6.98933 40.3309 7.24814C40.5588 7.50493 40.7772 7.76603 40.9891 8.03196L41.3205 8.44657H38.8503L38.776 8.36182C38.7038 8.28189 38.616 8.18547 38.5102 8.07306C38.4358 7.99288 38.3454 7.89874 38.2374 7.78887C36.4164 5.92385 34.2055 4.41864 31.7151 3.39656C29.3149 2.40899 26.6555 1.8637 23.8339 1.8637C21.0101 1.8637 18.2898 2.40899 15.786 3.39656C13.1808 4.41839 10.8077 5.92385 8.78605 7.78887C6.76439 9.65617 5.09465 11.8833 3.90687 14.3558C2.76201 16.7364 2.05867 19.3507 1.91017 22.0906C1.76141 24.8311 2.18047 27.4456 3.06626 29.8258C3.98798 32.3003 5.41687 34.5274 7.23561 36.3924C9.0566 38.2597 11.2697 39.7629 13.7601 40.787C16.1581 41.7746 18.8195 42.3196 21.6413 42.3196C24.4631 42.3196 27.1831 41.7746 29.6892 40.787C32.2899 39.7629 34.6675 38.2597 36.6872 36.3924C36.7863 36.3031 36.8584 36.2343 36.9058 36.1909C37.0049 36.0968 37.0725 36.0328 37.1222 35.9824L37.2033 35.9022H39.6959L39.3128 36.3196C39.0944 36.5556 38.8711 36.787 38.6459 37.0136C38.4116 37.2473 38.1772 37.4718 37.9493 37.685C35.745 39.7149 33.1555 41.3531 30.3135 42.4713Z" fill="#EF6323"/>
    <path fill-rule="evenodd" clip-rule="evenodd" d="M38.7487 33.2625H64.5109L64.6012 32.8572L65.9081 27.0534L66.0501 26.4302H49.6884L49.7583 26.1186L50.0715 24.689L50.1164 24.4829H62.7348L62.8274 24.0749L64.0669 18.5529L64.2066 17.9297H51.5813L51.6514 17.6159L51.9037 16.4656L51.9464 16.2616H67.5354L67.6277 15.8539L68.8697 10.3299L69.0072 9.70642H43.3531L43.263 10.1147L38.2306 32.6395L38.0908 33.2625H38.7487Z" fill="#000000"/>
    <path fill-rule="evenodd" clip-rule="evenodd" d="M66.4335 33.2625H75.178L75.2252 33.0496L76.8116 25.9285L77.2174 24.0955L77.6188 22.3015L77.7426 24.1348L77.8713 26.0062L78.351 33.013L78.3693 33.2625H85.9822L86.0586 33.1135L89.5228 26.3431L90.4872 24.4576L91.4317 22.6154L90.9832 24.6271L90.5302 26.6801L89.1442 32.9374L89.0698 33.2625H98.1565L98.2062 33.0496L103.309 10.0343L103.381 9.70642H91.4631L91.3845 9.85309L85.2878 21.3254L84.8373 22.1731L84.398 23.0003L84.3369 22.0701L84.274 21.1191L83.5527 9.96092L83.537 9.70642H71.3149L71.2678 9.91982L66.1632 32.9374L66.0911 33.2625H66.4335Z" fill="#000000"/>
    <path fill-rule="evenodd" clip-rule="evenodd" d="M113.009 33.2625H124.424L124.583 33.0907L129.354 27.924L129.631 27.6284L129.798 27.9884L132.108 32.9603L132.248 33.2625H144.75L144.256 32.4789L137.109 21.1262L136.999 20.9475L137.152 20.8031L148.053 10.593L149 9.70642H136.749L136.591 9.87846L132.906 13.8399L132.624 14.1444L132.463 13.7689L130.862 10.0249L130.725 9.70642H118.582L119.053 10.4857L125.194 20.5946L125.302 20.7732L125.147 20.913L112.646 32.3736L111.672 33.2625H113.009Z" fill="#000000"/>
    <path fill-rule="evenodd" clip-rule="evenodd" d="M101.488 33.2625H110.924L111.016 32.8572L116.046 10.3299L116.186 9.70642H106.092L106.002 10.1147L100.969 32.6395L100.832 33.2625H101.488Z" fill="#000000"/>
    <path fill-rule="evenodd" clip-rule="evenodd" d="M39.2092 13.7965C39.1258 13.407 38.9973 13.0449 38.8283 12.7036C38.6523 12.3555 38.4339 12.0368 38.1769 11.748C37.9245 11.4593 37.6315 11.205 37.3001 10.9759L37.2933 10.9711C36.9192 10.7214 36.4662 10.5085 35.9411 10.3413C35.4429 10.1809 34.8661 10.0548 34.2127 9.96572H34.2082C33.584 9.88072 32.8829 9.81677 32.1121 9.77541C31.3616 9.73405 30.53 9.7135 29.6128 9.71603V9.7135H11.7049L11.5719 10.3139L6.64749 32.3416L6.44458 33.2607H16.9425L17.0755 32.6603L18.4435 26.5519H23.0703C23.3746 26.5471 23.6609 26.5611 23.9267 26.5956C24.161 26.623 24.355 26.6621 24.515 26.7148H24.5172C24.6323 26.7516 24.7246 26.7973 24.7922 26.8544C24.8464 26.8983 24.8913 26.9508 24.9208 27.0148C24.9657 27.1021 24.9907 27.2028 25.0064 27.3335C25.0244 27.4918 25.0244 27.677 25.0019 27.8882H24.9997C24.9657 28.1607 24.932 28.3878 24.9073 28.5481C24.8736 28.7565 24.8374 28.9628 24.7922 29.1688C24.7269 29.4735 24.6864 29.6684 24.6615 29.8082L24.5444 30.4061L24.5399 30.4154C24.5062 30.6101 24.4768 30.8141 24.4521 31.0247C24.4341 31.2196 24.4229 31.4119 24.4159 31.6042V31.6202C24.4159 31.7303 24.4181 31.8265 24.4226 31.9044C24.4293 31.9937 24.4361 32.0879 24.4518 32.184V32.1886C24.4653 32.2942 24.488 32.3969 24.5217 32.5073C24.5554 32.6149 24.5893 32.7113 24.6323 32.8052L24.8372 33.2612H35.7361L35.8577 32.6354L35.9186 32.3033L36.0222 31.7737L35.5332 31.5081C35.522 31.5012 35.5153 31.4944 35.5063 31.4852C35.4906 31.4667 35.4746 31.4373 35.4611 31.3979V31.3911C35.4361 31.3152 35.4137 31.2353 35.4025 31.1457C35.3822 31.0265 35.3777 30.8938 35.3777 30.7491C35.38 30.5385 35.398 30.2909 35.4249 30.0161C35.4519 29.7527 35.4903 29.4636 35.5465 29.1475V29.1427C35.5894 28.8656 35.6523 28.4923 35.7312 28.0135C35.8125 27.5596 35.8822 27.1541 35.9475 26.8082L35.952 26.7968C35.9947 26.5563 36.0219 26.3728 36.0444 26.2378C36.0624 26.1208 36.0851 25.9468 36.1143 25.7197C36.139 25.5296 36.157 25.3626 36.1727 25.2134C36.1794 25.0713 36.1862 24.9155 36.1862 24.746C36.1951 24.4827 36.1772 24.2441 36.1435 24.0241C36.1073 23.7861 36.0509 23.5616 35.9768 23.355L35.97 23.3436C35.8866 23.1168 35.7808 22.9059 35.6431 22.709C35.5078 22.5095 35.3433 22.3218 35.1519 22.1475C35.1182 22.12 35.0887 22.0926 35.0593 22.0675C35.4671 21.8384 35.8482 21.5841 36.2064 21.2928C36.576 20.9906 36.9187 20.6674 37.2274 20.3169C37.5384 19.9663 37.8177 19.5882 38.068 19.1896C38.3136 18.7955 38.53 18.3717 38.7127 17.9226C38.8929 17.4803 39.0394 17.0244 39.1478 16.5547L39.1545 16.5296C39.177 16.424 39.1997 16.3025 39.2241 16.1424C39.2491 15.998 39.2671 15.865 39.2828 15.748C39.2963 15.6245 39.3075 15.4938 39.3167 15.3702C39.3235 15.2598 39.3302 15.134 39.3302 14.9964C39.3307 14.5712 39.2948 14.1725 39.2092 13.7965ZM29.1148 18.1155L29.1126 18.1386C29.036 18.4638 28.9164 18.7666 28.7612 19.0391V19.0439C28.5989 19.3256 28.4005 19.573 28.1639 19.7749C27.9363 19.9716 27.6702 20.1345 27.3705 20.272C27.0954 20.4004 26.7822 20.4966 26.442 20.5674C26.1265 20.6339 25.7771 20.6844 25.4007 20.7166C25.0536 20.746 24.6615 20.7552 24.2199 20.7552H18.1235L18.3332 19.8366L19.2279 15.8911L19.3655 15.2976H24.8961V15.3025C25.3443 15.2954 25.7457 15.3068 26.0973 15.3253C26.4849 15.3504 26.8344 15.3847 27.1364 15.4352V15.44C27.4813 15.4902 27.7855 15.5798 28.0514 15.7011C28.3556 15.8455 28.6014 16.0312 28.7859 16.251L28.7926 16.2578C28.9955 16.5055 29.1196 16.796 29.1713 17.1421C29.2117 17.4349 29.1915 17.7559 29.1148 18.1155Z" fill="#EF6323"/>
</svg>